<svg width="20" height="20" viewBox="0 0 20 20" fill="none" xmlns="http://www.w3.org/2000/svg">
<path id="Vector" d="M0.705078 9.22543H18.8133M3.30272 1.48035H16.696C18.1305 1.48035 19.2935 2.44597 19.2935 3.63713V10.1668C19.2935 11.3579 18.1305 12.3235 16.696 12.3235H3.30272C1.86813 12.3235 0.705176 11.3579 0.705176 10.1668V3.63713C0.705176 2.44597 1.86813 1.48035 3.30272 1.48035ZM12.0945 12.3235H7.90368L7.67555 15.4216H12.3226L12.0945 12.3235ZM5.33087 15.4216H14.6676C15.0836 15.4216 15.4208 15.9502 15.4208 16.6023V17.339C15.4208 17.991 15.0836 18.5196 14.6676 18.5196H5.33087C4.91488 18.5196 4.57763 17.991 4.57763 17.339V16.6023C4.57763 15.9502 4.91488 15.4216 5.33087 15.4216Z" stroke="#232323" stroke-miterlimit="10" stroke-linecap="round"/>
</svg>
