<svg width="18" height="18" viewBox="0 0 18 18" fill="none" xmlns="http://www.w3.org/2000/svg">
<path id="Vector" d="M17.0763 3.63487L15.857 4.83748C15.1613 5.52361 14.0337 5.52361 13.3381 4.83748C12.6424 4.15135 12.6424 3.03922 13.3381 2.35309L14.6195 1.08922C13.2931 0.651904 11.7728 0.950673 10.7169 1.99212C9.66098 3.03357 9.35902 4.53306 9.80146 5.84123L1.27863 14.2473C0.615457 14.9013 0.615457 15.9607 1.27863 16.6148C1.9418 17.2689 3.01588 17.2689 3.67906 16.6148L12.2019 8.20876C13.5282 8.64607 15.0485 8.3473 16.1045 7.30586C17.1126 6.31153 17.4356 4.89969 17.0772 3.63487H17.0763Z" stroke="#232323" stroke-miterlimit="10" stroke-linecap="round"/>
</svg>
