<svg width="10" height="18" viewBox="0 0 10 18" fill="none" xmlns="http://www.w3.org/2000/svg">
<path id="Vector" d="M5.40594 6.58926C5.40594 6.31311 5.18208 6.08926 4.90594 6.08926C4.6298 6.08926 4.40594 6.31311 4.40594 6.58926H5.40594ZM4.90594 8.98379H4.40594V9.48379H4.90594V8.98379ZM6.74439 9.48379C7.02053 9.48379 7.24439 9.25993 7.24439 8.98379C7.24439 8.70765 7.02053 8.48379 6.74439 8.48379V9.48379ZM8.75649 8.96525C8.75649 11.0016 7.08088 12.6641 4.99934 12.6641V13.6641C7.62011 13.6641 9.75649 11.5668 9.75649 8.96525H8.75649ZM4.99934 12.6641C2.91779 12.6641 1.24219 11.0016 1.24219 8.96525H0.242188C0.242188 11.5668 2.37856 13.6641 4.99934 13.6641V12.6641ZM1.24219 8.96525C1.24219 6.92893 2.91779 5.26643 4.99934 5.26643V4.26643C2.37856 4.26643 0.242188 6.36368 0.242188 8.96525H1.24219ZM4.99934 5.26643C7.08088 5.26643 8.75649 6.92893 8.75649 8.96525H9.75649C9.75649 6.36368 7.62011 4.26643 4.99934 4.26643V5.26643ZM7.76621 5.48004V1.90679H6.76621V5.48004H7.76621ZM7.76621 1.90679C7.76621 1.26469 7.24055 0.754883 6.60525 0.754883V1.75488C6.70071 1.75488 6.76621 1.82934 6.76621 1.90679H7.76621ZM6.60525 0.754883H3.28523V1.75488H6.60525V0.754883ZM3.28523 0.754883C2.65114 0.754883 2.12426 1.2635 2.12426 1.90679H3.12426C3.12426 1.82934 3.18977 1.75488 3.28523 1.75488V0.754883ZM2.12426 1.90679V5.48004H3.12426V1.90679H2.12426ZM2.12489 12.5199V16.0931H3.12489V12.5199H2.12489ZM2.12489 16.0931C2.12489 16.7352 2.65056 17.245 3.28586 17.245V16.245C3.19039 16.245 3.12489 16.1706 3.12489 16.0931H2.12489ZM3.28586 17.245H6.60588V16.245H3.28586V17.245ZM6.60588 17.245C7.23997 17.245 7.76685 16.7364 7.76685 16.0931H6.76685C6.76685 16.1706 6.70134 16.245 6.60588 16.245V17.245ZM7.76685 16.0931V12.5199H6.76685V16.0931H7.76685ZM4.40594 6.58926V8.98379H5.40594V6.58926H4.40594ZM4.90594 9.48379H6.74439V8.48379H4.90594V9.48379Z" fill="#232323"/>
</svg>
