<svg xmlns="http://www.w3.org/2000/svg" viewBox="0 0 960 480" role="img" aria-label="Illustration conceptuelle, sans photographie ni mesure observée"><rect width="960" height="480" fill="#f6f3ed"/><path d="M0 420h960" stroke="#ddd3c4"/><ellipse cx="480" cy="417" rx="195" ry="13" fill="#7b796d" opacity=".09"/><rect x="37" y="28" rx="12" width="104" height="34" fill="#233e51"/><g fill="#fff"><circle cx="58" cy="45" r="4" opacity="0.32"/><circle cx="78" cy="45" r="4" opacity="0.32"/><circle cx="98" cy="45" r="4" opacity="1"/></g><ellipse cx="470" cy="392" rx="150" ry="16" fill="#3e5363" opacity=".10"/><path d="M405 196q0-82 65-82t65 82" fill="none" stroke="#6f8670" stroke-width="12" stroke-linecap="round"/><path d="M352 196h236l26 168q2 22-20 22H346q-22 0-20-22Z" fill="#8fa58a" stroke="#44586a" stroke-width="3" stroke-linejoin="round"/><path d="M360 196h220l-12 70H372Z" fill="#6f8670" opacity=".55"/><rect x="458" y="252" width="24" height="20" rx="4" fill="#d9c7a3" stroke="#6d6053" stroke-width="2"/><path d="M344 372h252" stroke="#fff" stroke-width="2" stroke-dasharray="6 6" opacity=".55"/><path d="M361 212h218" stroke="#fff" stroke-width="2" stroke-dasharray="6 6" opacity=".45"/><path d="M372 290q-4 40 0 70" stroke="#fff" stroke-width="8" opacity=".25" stroke-linecap="round"/><rect x="684" y="216" width="88" height="88" rx="8" fill="none" stroke="#8f95a8" stroke-width="3" stroke-dasharray="8 7"/><path d="M620 270h56" stroke="#8f95a8" stroke-width="2" stroke-dasharray="5 6"/></svg>
