<svg width="18" height="16" viewBox="0 0 18 16" fill="none" xmlns="http://www.w3.org/2000/svg">
<path id="Vector" d="M0.994141 11.7932H17.0065M17.0065 14.5287V8.51451C17.0065 7.82595 16.4413 7.26848 15.7431 7.26848H2.25746M2.25746 7.26848C1.55933 7.26848 0.994141 7.82595 0.994141 8.51451V14.5287M2.25746 7.26848L15.9074 7.26848V4.59464C15.9074 2.87048 14.4877 1.47131 12.7407 1.47131H5.4232C3.67508 1.47131 2.25757 2.87158 2.25757 4.59464L2.25746 7.26848ZM6.1806 4.93945H7.61822C8.42693 4.93945 9.08262 5.58615 9.08262 6.38379V7.26956H4.71511V6.38379C4.71511 5.58615 5.37189 4.93945 6.1806 4.93945ZM11.9843 4.93945C12.793 4.93945 13.4487 5.58615 13.4487 6.38379V7.26956H9.08119V6.38379C9.08119 5.58615 9.73688 4.93945 10.5456 4.93945H11.9843Z" stroke="#232323" stroke-miterlimit="10" stroke-linecap="round"/>
</svg>
